<!DOCTYPE svg PUBLIC "-//W3C//DTD SVG 20010904//EN" "http://www.w3.org/TR/2001/REC-SVG-20010904/DTD/svg10.dtd">
<svg version="1.0" xmlns="http://www.w3.org/2000/svg" width="540px" height="540px" viewBox="0 0 5400 5400" preserveAspectRatio="xMidYMid meet">
<g id="layer101" fill="#ffffff" stroke="none">
 <path d="M885 5389 c-82 -12 -225 -54 -293 -86 -288 -133 -510 -417 -574 -733 -10 -52 -13 -421 -13 -1880 0 -2002 -5 -1849 61 -2030 103 -286 342 -515 639 -612 153 -50 83 -48 1993 -48 1918 0 1841 -2 2001 50 303 97 552 347 649 652 49 153 47 58 47 1993 l0 1820 -24 94 c-49 198 -140 359 -278 492 -147 143 -277 215 -488 272 l-80 22 -1790 1 c-984 1 -1817 -2 -1850 -7z m775 -2064 l0 -1245 -410 0 -410 0 0 1245 0 1245 410 0 410 0 0 -1245z m1250 488 c0 -484 4 -774 11 -803 29 -126 135 -266 240 -314 198 -92 421 -30 507 141 65 129 72 221 72 1036 l0 697 410 0 411 0 -4 -847 c-3 -837 -3 -849 -25 -946 -28 -120 -45 -173 -84 -257 -150 -319 -433 -490 -813 -490 -206 0 -365 49 -496 151 -74 59 -127 117 -211 231 -16 22 -17 18 -18 -102 0 -69 -3 -149 -6 -177 l-7 -53 -413 0 -414 0 0 773 c0 424 3 985 7 1245 l6 472 414 0 413 0 0 -757z m-1579 -2087 c236 -42 379 -234 348 -466 -23 -165 -137 -292 -302 -336 -61 -16 -203 -18 -267 -3 -125 29 -237 117 -288 227 -24 51 -27 68 -27 172 0 110 1 118 33 182 59 119 180 207 313 226 90 13 104 13 190 -2z"/>
 </g>

</svg>